<?xml version="1.0" ?><svg data-name="Layer 3" id="Layer_3" viewBox="0 0 48 48" xmlns="http://www.w3.org/2000/svg"><defs><style>.cls-1{fill:#ffd38b;}.cls-2{fill:#d36845;}.cls-3{fill:#e57c4f;}.cls-4{fill:#686886;}.cls-4,.cls-5{opacity:0.5;}.cls-5{fill:#ffeae5;}</style></defs><path class="cls-1" d="M40.84473,9.87109a19.64046,19.64046,0,0,0-2.05567-2.14941c-.25781-.23682-.52539-.47314-.7959-.69287-.2666-.22656-.54492-.44238-.83007-.65674-.21192-.16113-.43164-.31543-.65723-.47412l-.1377-.09668c-.041-.02881-.04-.03955-.08789-.05518-.28906-.1958-.57812-.38183-.89843-.56982-.29883-.17969-.59766-.3584-.87891-.50781a3.07833,3.07833,0,0,0-.38184-.19141A21.94768,21.94768,0,0,0,10.76953,6.43018,21.83217,21.83217,0,0,0,8.4458,8.44678c-.24658.24707-.49365.50439-.72314.76367-.46094.49951-.91651,1.04834-1.39307,1.67969-.1001.13427-.20068.27685-.30127.41992l-.18408.26465c-.02979.05224-.06787.104-.126.186-.16553.24854-.33008.49658-.479.75781a.64667.64667,0,0,0-.08447.13819c-.13624.22021-.27247.45117-.37989.65674-.17529.30957-.34033.61914-.48877.92627-.14306.27588-.26562.55078-.38916.82861-.19189.41162-.37549.86377-.57617,1.41943a21.97879,21.97879,0,0,0,.59766,16.48487A14.13087,14.13087,0,0,0,4.73291,34.603c.13623.27343.29346.53662.47461.832.0249.04346.05127.08887.08105.13183a.573.573,0,0,0,.1001.14649c.17725.30176.375.59326.56836.86767.15479.22754.31983.45508.48486.67139q.29078.38379.5835.73682c.46826.56445.93311,1.07617,1.4209,1.56445.48828.48779,1,.95264,1.56445,1.4209.52246.43408,1.07422.84863,1.6919,1.27148.56152.374,1.13623.72168,1.69922,1.02784.22314.12793.44677.25488.67382.35839.19239.10108.38575.20215.5835.291.1582.07373.31641.14746.44678.19873.19922.09375.40869.17822.60254.25537.17138.0752.34277.13965.499.19385a5.04559,5.04559,0,0,0,.689.23584,1.51879,1.51879,0,0,0,.28028.10547c.30517.10547.61035.1997.89258.26758a16.8121,16.8121,0,0,0,2.1123.48c.21631.04345.44287.08593.63574.10449A21.68474,21.68474,0,0,0,24,46a21.91143,21.91143,0,0,0,4.52051-.47021,20.58722,20.58722,0,0,0,3.33691-.98243c.61914-.23485,1.18653-.48,1.73047-.74707.31738-.15381.63574-.31787.94922-.49023a21.93523,21.93523,0,0,0,2.62207-1.6792,20.96681,20.96681,0,0,0,2.27148-1.96436A21.95308,21.95308,0,0,0,40.84473,9.87109Z"/><path class="cls-2" d="M41.93665,29.66216a.5132.5132,0,1,1,.25616-.9939.51319.51319,0,1,1-.25616.9939Z"/><path class="cls-3" d="M7.30292,34.01168c1.414,1.10661,2.52062,2.56161,3.86291,3.75019,2.98171,2.63333,7.152,4.02685,9.32424,7.36718a2.80141,2.80141,0,0,1,.3074.63528c-.21518-.03074-.42011-.06148-.625-.10246a16.71154,16.71154,0,0,1-2.121-.48158c-.30739-.082-.60453-.16395-.89143-.26641a1.21711,1.21711,0,0,1-.22543-.082c-.24591-.07173-.49182-.16395-.73774-.25616-.17419-.06148-.33813-.123-.50207-.19469-.20493-.082-.40986-.16394-.60454-.25616-.1537-.06147-.3074-.1332-.46109-.20492a6.42746,6.42746,0,0,1-.59429-.29715c-.22543-.10247-.4406-.22542-.65578-.34838-.584-.31764-1.15784-.666-1.71115-1.03489-.584-.39961-1.1476-.81971-1.69066-1.27056s-1.06563-.92217-1.5677-1.42425-.97341-1.02464-1.42426-1.5677q-.292-.3535-.584-.73774c-.16395-.21518-.32789-.4406-.48158-.666-.20493-.2869-.38937-.5738-.56356-.8607a.66892.66892,0,0,1-.10246-.1537,1.43439,1.43439,0,0,1-.10247-.16394c-.16394-.26641-.31764-.52257-.45084-.789-.18444-.33813-.36887-.67626-.53281-1.02464-.10247-.20493-.19469-.40986-.2869-.61478-.082-.20493-.17419-.40986-.25616-.61479A11.621,11.621,0,0,1,7.30292,34.01168Z"/><path class="cls-3" d="M41.41328,19.12362c.69675.80947-1.4345,1.46524-2.2952.99391a.71024.71024,0,0,1-.43035-.584c-.01025-.4201.63528-1.04514,1.4345-1.03489A1.95566,1.95566,0,0,1,41.41328,19.12362Z"/><path class="cls-3" d="M38.79019,7.66812a19.44857,19.44857,0,0,1,2.05953,2.15175c-.03074.07172-.07172.15369-.10246.22542a2.08884,2.08884,0,0,1-.4201.67626c-.625.625-1.67017.4406-2.53087.22542a3.48554,3.48554,0,0,1-1.2808-.54306,8.18454,8.18454,0,0,1-.8607-1.08612A10.20661,10.20661,0,0,0,34.0256,7.996c-1.48573-1.16809-1.02464-2.65382.09222-3.576a3.09386,3.09386,0,0,1,.36887.18444c.3074.16394.61479.34837.92218.53281.29715.17419.584.35862.871.55331a.35967.35967,0,0,0,.082.05123c.27665.19468.54306.37912.79922.5738.2869.21517.56355.43035.83.65577C38.26762,7.19678,38.534,7.43245,38.79019,7.66812Z"/><path class="cls-3" d="M36.80239,35.80481c-.26641.789.666,1.38326,1.32178,1.90583a3.319,3.319,0,0,1,1.31155,1.94682A20.887,20.887,0,0,1,37.161,41.62478l-.79922.5533c-.59429.39961-1.19883.77873-1.82386,1.12711q-.47646.26128-.95292.49183c-.56356.26641-1.1476.52257-1.73165.748a20.53357,20.53357,0,0,1-3.34033.98365,11.0923,11.0923,0,0,0-4.3035-4.52892c-1.414-.88119-3.16615-1.86485-3.26861-3.535-.06148-1.09637.63528-2.06978.93242-3.12516a4.2639,4.2639,0,0,0-.61478-3.5965c-1.06563-1.52672-2.96122-2.17224-4.67237-2.87925a32.79464,32.79464,0,0,1-8.689-5.28715,3.02789,3.02789,0,0,1,2.92023-1.26031,12.37719,12.37719,0,0,1,3.22762.93242,19.96792,19.96792,0,0,0,5.46135,1.1476c1.64967.10247,3.64772-.22542,4.26251-1.74189a3.05088,3.05088,0,0,1,.2869-.67626,1.1856,1.1856,0,0,1,1.31154-.35863h.01025a1.91529,1.91529,0,0,1,.59429.24592c.61479.37911,1.07588.94267,1.71116,1.25006.5738.27665,1.291.32788,1.69066.80947a1.397,1.397,0,0,1-.38937,1.95706c-.34838.22543-.85045.46109-.77873.8812a.802.802,0,0,0,.42011.46109c1.76238,1.09636,3.95512,1.68041,5.154,3.38132a21.24824,21.24824,0,0,0,1.5677,2.59234c.42011.45085.97341.76849,1.40376,1.21933a1.60273,1.60273,0,0,1,.45085,1.69066A5.8405,5.8405,0,0,0,36.80239,35.80481Z"/><path class="cls-3" d="M36.8946,25.01532c1.93658,1.59844-.36887,3.11491-2.162,2.21323a2.92306,2.92306,0,0,1-1.291-1.1476c-.50208-.8607-.2869-2.203.87094-2.244A4.93869,4.93869,0,0,1,36.8946,25.01532Z"/><path class="cls-3" d="M19.1273,11.60275c1.3013,1.50622-1.578,3.03294-3.0022,2.19273a1.59262,1.59262,0,0,1-.84021-1.07587,2.01673,2.01673,0,0,1,1.74189-2.203A3.03456,3.03456,0,0,1,19.1273,11.60275Z"/><path class="cls-3" d="M3.27608,16.44931c.17419-.48159.35862-.95292.5738-1.414a8.71068,8.71068,0,0,1,.38936-.83c.1537-.31764.31764-.625.49183-.93243.11271-.21517.24591-.44059.37912-.65577a1.03938,1.03938,0,0,1,.10246-.16394c.14345-.25616.30739-.50208.47134-.748.05123-.07173.10246-.14345.14345-.21518.15369-.21517.30739-.44059.46109-.64552.44059-.584.90168-1.1476,1.39351-1.68041.23567-.26641.48158-.52257.7275-.76849a21.74458,21.74458,0,0,1,2.32594-2.01854c.2869-.21518.584-.42011.88119-.625l.43035-.27666a6.12174,6.12174,0,0,1,.45084,1.98781A3.65491,3.65491,0,0,1,12.17,8.50832a5.70891,5.70891,0,0,1-1.5882,2.42841,10.69884,10.69884,0,0,0-1.55746,1.01439,4.00277,4.00277,0,0,0-.707,1.1681c-.7275,1.48573-1.79313,2.992-3.40181,3.35058A3.84454,3.84454,0,0,1,3.27608,16.44931Z"/><path class="cls-2" d="M34.84532,14.359a.5132.5132,0,1,1,.25616-.9939.51319.51319,0,0,1-.25616.9939Z"/><path class="cls-2" d="M17.17023,19.16461a.51485.51485,0,0,1-.625.36887.5256.5256,0,0,1-.36887-.63528.51453.51453,0,0,1,.9939.26641Z"/><path class="cls-2" d="M16.82185,33.192a.51678.51678,0,0,1-.625.35862.50955.50955,0,1,1,.625-.35862Z"/><circle class="cls-2" cx="4.51589" cy="27.36175" r="0.51232"/><path class="cls-2" d="M38.124,38.22312a.50818.50818,0,0,1-.3192-.11207l-.22514-.17511c-.68142-.52733-1.616-1.24928-1.26279-2.29494a1.91143,1.91143,0,0,1,.28618-.53183,1.48726,1.48726,0,0,0,.13408-.21514,1.1363,1.1363,0,0,0-.36022-1.1272,5.96311,5.96311,0,0,0-.6354-.54635,5.16421,5.16421,0,0,1-1.79312-2.28043A8.2099,8.2099,0,0,0,33.36,29.9009,8.06888,8.06888,0,0,0,30.123,27.606c-.58937-.29118-1.19876-.59237-1.76711-.94659a1.25411,1.25411,0,0,1-.65241-.7955c-.12308-.71895.49531-1.09869.86454-1.32583l.13809-.08606a.9733.9733,0,0,0,.39925-.66041.68734.68734,0,0,0-.12408-.53684,1.7956,1.7956,0,0,0-.84253-.42326,5.34474,5.34474,0,0,1-.67842-.25466,5.17647,5.17647,0,0,1-1.07068-.752,5.87843,5.87843,0,0,0-.68643-.52283,1.41731,1.41731,0,0,0-.44327-.18412.51211.51211,0,1,1,.23614-.99662,2.41464,2.41464,0,0,1,.75448.3142,6.83582,6.83582,0,0,1,.7975.60487,4.32321,4.32321,0,0,0,.85854.61389,4.2821,4.2821,0,0,0,.54634.20213,2.61554,2.61554,0,0,1,1.31482.742,1.67444,1.67444,0,0,1,.35122,1.34234,1.99663,1.99663,0,0,1-.85353,1.37036l-.1611.10007a2.08779,2.08779,0,0,0-.38024.27217,1.60608,1.60608,0,0,1,.1691.10406c.52934.32971,1.1167.61989,1.68406.90007a8.9605,8.9605,0,0,1,3.62127,2.62314,9.33959,9.33959,0,0,1,.66442,1.16723,5.68605,5.68605,0,0,0,.85654,1.36836,5.72659,5.72659,0,0,0,.65441.56836,6.865,6.865,0,0,1,.74847.64941,2.1201,2.1201,0,0,1,.54334,2.26292,2.48847,2.48847,0,0,1-.22114.36673,1.11892,1.11892,0,0,0-.1531.26216c-.11407.34071.32721.715.91558,1.16973l.23614.18462a.51236.51236,0,0,1-.3192.91307Z"/><path class="cls-2" d="M21.82925,23.705a.51241.51241,0,0,1-.13858-1.00563,2.23768,2.23768,0,0,0,1.6035-1.23728l.06154-.17261a2.28014,2.28014,0,0,1,.28018-.60488,1.67657,1.67657,0,0,1,1.85316-.56285.51256.51256,0,0,1-.24415.99562c-.16811-.04152-.58437-.10907-.76949.1551a1.43327,1.43327,0,0,0-.15009.34822l-.07905.22014A3.24713,3.24713,0,0,1,21.96884,23.686.51824.51824,0,0,1,21.82925,23.705Z"/><path class="cls-2" d="M21.47753,35.90717a.51215.51215,0,0,1-.47179-.71245A8.43954,8.43954,0,0,0,21.38,34.2006a3.7518,3.7518,0,0,0-.53784-3.159c-.875-1.25329-2.42652-1.88218-3.92646-2.49006l-.52533-.21464a33.2752,33.2752,0,0,1-8.82453-5.36887.51241.51241,0,0,1-.11207-.6479,3.50884,3.50884,0,0,1,3.41064-1.514,9.974,9.974,0,0,1,2.77073.74446l.58287.21564a19.36826,19.36826,0,0,0,5.32234,1.1187.51305.51305,0,0,1,.4773.54534.52094.52094,0,0,1-.54534.4773,20.40357,20.40357,0,0,1-5.602-1.17724l-.59587-.22063a9.06743,9.06743,0,0,0-2.49407-.68243,2.785,2.785,0,0,0-2.18086.66792,32.23546,32.23546,0,0,0,8.18163,4.89457l.51932.21213c1.63853.66392,3.33309,1.35085,4.37825,2.84779a4.796,4.796,0,0,1,.68693,4.03153,9.5455,9.5455,0,0,1-.41626,1.11369A.51288.51288,0,0,1,21.47753,35.90717Z"/><path class="cls-2" d="M19.9871,44.94334a.50967.50967,0,0,1-.40125-.19362,18.72452,18.72452,0,0,0-4.92409-3.896,29.08192,29.08192,0,0,1-3.83491-2.7077c-.13908-.12307-.27517-.24865-.40975-.37673a.51241.51241,0,0,1,.70744-.74147q.18687.17862.38074.35022a28.39332,28.39332,0,0,0,3.70132,2.60814,19.74361,19.74361,0,0,1,5.18075,4.12609.51238.51238,0,0,1-.40025.831Z"/><path class="cls-2" d="M25.378,21.1319a.526.526,0,0,1-.50332-.37123l-.08905-.29869a3.1892,3.1892,0,0,1-.067-2.46655,3.09791,3.09791,0,0,1,1.42189-1.23727,4.16412,4.16412,0,0,0,.77849-.50432,3.04241,3.04241,0,0,0,.8075-2.02527c.028-.26366.044-.52383.061-.78449a8.35936,8.35936,0,0,1,.26517-1.89469A2.91511,2.91511,0,0,1,30.181,9.41705a.51226.51226,0,1,1,.16811,1.01064,1.943,1.943,0,0,0-1.31583,1.41839,7.49625,7.49625,0,0,0-.22314,1.662c-.017.27567-.035.55085-.064.82352a3.99516,3.99516,0,0,1-1.13971,2.68168,4.9629,4.9629,0,0,1-.97061.6419,2.24791,2.24791,0,0,0-1.00463.806,2.39477,2.39477,0,0,0,.13608,1.70507l.07205.24365a.51017.51017,0,0,1-.46129.722Z"/><path class="cls-2" d="M6.29051,16.33089a.51231.51231,0,0,1-.3092-.92108A6.8206,6.8206,0,0,0,7.857,12.89424l.05053-.10657A4.05219,4.05219,0,0,1,8.662,11.58892a3.97152,3.97152,0,0,1,1.03364-.71545,4.9863,4.9863,0,0,0,.58237-.34972A5.34258,5.34258,0,0,0,11.6999,8.30536a3.91444,3.91444,0,0,0,.26467-.74847A.51249.51249,0,0,1,12.9682,7.765a4.86007,4.86007,0,0,1-.32871.94909,6.18732,6.18732,0,0,1-1.7506,2.63215,6.0049,6.0049,0,0,1-.70444.42777,3.16966,3.16966,0,0,0-.7895.53084,3.17762,3.17762,0,0,0-.56035.91857l-.05453.11557A7.79978,7.79978,0,0,1,6.5987,16.22733.50825.50825,0,0,1,6.29051,16.33089Z"/><path class="cls-4" d="M36.48132,5.83743A22.01959,22.01959,0,0,1,5.85123,36.46733,22.02378,22.02378,0,1,0,36.48132,5.83743Z"/><circle class="cls-5" cx="12.20071" cy="14.23608" r="6.66018"/></svg>